<svg width="117" height="117" viewBox="0 0 117 117" fill="none" xmlns="http://www.w3.org/2000/svg">
<path d="M96.7519 0.138672H19.3812C14.2552 0.151439 9.3427 2.19342 5.71801 5.81811C2.09332 9.4428 0.0513416 14.3553 0.0385742 19.4813V96.852C0.0385742 107.49 8.74277 116.195 19.3812 116.195H96.7519C107.39 116.195 116.095 107.49 116.095 96.852V19.4813C116.095 8.84287 107.39 0.138672 96.7519 0.138672ZM86.1763 81.6438C85.2091 83.9746 83.6762 86.0298 81.713 87.611C79.682 89.2551 77.1094 90.6091 73.942 91.5763C70.7795 92.5579 67.0174 93.0511 62.6604 93.0511H31.5574V25.3518H64.4496C70.5329 25.3518 75.4072 26.7203 79.0533 29.5105C82.7284 32.3152 84.5563 36.4932 84.5563 42.1316C84.5563 45.5407 83.7246 48.4663 82.0514 50.8841C80.388 53.2875 77.9895 55.1685 74.8947 56.4742V56.6966C79.0243 57.567 82.2207 59.5255 84.3242 62.5719C86.4277 65.6184 87.5061 69.4676 87.5061 74.1147C87.5061 76.7163 87.0032 79.1921 86.0554 81.5036L86.1763 81.6341V81.6438ZM72.7525 64.9608C70.7698 63.1474 67.9845 62.2625 64.3868 62.2625H43.487V83.3846H64.4448C68.0232 83.3846 70.8279 82.4562 72.8105 80.58C74.7931 78.7182 75.8086 76.0634 75.8086 72.6495C75.7748 69.3129 74.7931 66.7306 72.8105 64.9608H72.7283H72.7525ZM69.8511 51.3097C71.766 49.6849 72.7041 47.3589 72.7041 44.327C72.7041 40.9227 71.8579 38.5048 70.1412 37.1218C68.439 35.7437 65.9825 35.028 62.7523 35.028H43.4096V53.7082H62.7523C65.5715 53.7082 67.9748 52.8861 69.8317 51.3097H69.8511Z" fill="#5E3BEE"/>
</svg>
