<svg width="144" height="144" viewBox="0 0 144 144" fill="none" xmlns="http://www.w3.org/2000/svg">
<path d="M101.702 55.5182C101.702 55.5182 99.408 35.9436 78.1927 35.3968C56.9715 34.8558 46.0816 50.0792 46.0816 71.8354C46.0816 93.5915 58.1247 110.996 78.7634 110.996C99.408 110.996 101.708 89.2403 101.708 89.2403L141.274 91.4159C141.274 91.4159 143.598 111.068 127.043 126.059C110.482 141.051 90.1646 143.5 75.9696 143.399C61.7745 143.292 42.0989 143.601 23.0652 125.75C4.04934 107.911 0.809692 90.5718 0.809692 73.5414C0.809692 56.505 4.41789 33.9463 27.0479 16.8327C42.4199 5.21749 58.0118 0.931641 73.6037 0.931641C138.694 0.925697 143.057 55.8987 143.057 55.8987L101.702 55.5182Z" fill="#5E3BEE"/>
</svg>
