<svg width="61" height="61" viewBox="0 0 61 61" fill="none" xmlns="http://www.w3.org/2000/svg">
<rect x="1.33337" y="1.83334" width="58" height="58" rx="29" stroke="#5E3BEE" stroke-width="2"/>
<path d="M37.0834 21.8334H32.5834C31.7549 21.8334 31.0834 22.505 31.0834 23.3334V27.8334H37.0834C37.2539 27.8296 37.4158 27.909 37.5172 28.0462C37.6186 28.1835 37.6471 28.3614 37.5934 28.5234L36.4834 31.8234C36.3811 32.1262 36.098 32.331 35.7784 32.3334H31.0834V43.5834C31.0834 43.9975 30.7475 44.3334 30.3334 44.3334H26.5834C26.1692 44.3334 25.8334 43.9975 25.8334 43.5834V32.3334H23.5834C23.1692 32.3334 22.8334 31.9975 22.8334 31.5834V28.5834C22.8334 28.1692 23.1692 27.8334 23.5834 27.8334H25.8334V23.3334C25.8334 20.0197 28.5197 17.3334 31.8334 17.3334H37.0834C37.4975 17.3334 37.8334 17.6692 37.8334 18.0834V21.0834C37.8334 21.4976 37.4975 21.8334 37.0834 21.8334Z" fill="#5E3BEE"/>
</svg>
