<svg width="61" height="61" viewBox="0 0 61 61" fill="none" xmlns="http://www.w3.org/2000/svg">
<rect x="1.33337" y="1.83337" width="58" height="58" rx="29" stroke="#5E3BEE" stroke-width="2"/>
<mask id="mask0_395_547" style="mask-type:luminance" maskUnits="userSpaceOnUse" x="11" y="11" width="39" height="39">
<path d="M49.3334 11.8334H11.3334V49.8334H49.3334V11.8334Z" fill="white"/>
</mask>
<g mask="url(#mask0_395_547)">
<path fill-rule="evenodd" clip-rule="evenodd" d="M30.3334 11.8334C19.8359 11.8334 11.3334 20.3359 11.3334 30.8334C11.3334 39.2409 16.7721 46.3421 24.3246 48.8596C25.2746 49.0259 25.6309 48.4559 25.6309 47.9571C25.6309 47.5059 25.6071 46.0096 25.6071 44.4184C20.8334 45.2971 19.5984 43.2546 19.2184 42.1859C19.0046 41.6396 18.0784 39.9534 17.2709 39.5021C16.6059 39.1459 15.6559 38.2671 17.2471 38.2434C18.7434 38.2196 19.8121 39.6209 20.1684 40.1909C21.8784 43.0646 24.6096 42.2571 25.7021 41.7584C25.8684 40.5234 26.3671 39.6921 26.9134 39.2171C22.6859 38.7421 18.2684 37.1034 18.2684 29.8359C18.2684 27.7696 19.0046 26.0596 20.2159 24.7296C20.0259 24.2546 19.3609 22.3071 20.4059 19.6946C20.4059 19.6946 21.9971 19.1959 25.6309 21.6421C27.1509 21.2146 28.7659 21.0009 30.3809 21.0009C31.9959 21.0009 33.6109 21.2146 35.1309 21.6421C38.7646 19.1721 40.3559 19.6946 40.3559 19.6946C41.4009 22.3071 40.7359 24.2546 40.5459 24.7296C41.7571 26.0596 42.4934 27.7459 42.4934 29.8359C42.4934 37.1271 38.0521 38.7421 33.8246 39.2171C34.5134 39.8109 35.1071 40.9509 35.1071 42.7321C35.1071 45.2734 35.0834 47.3159 35.0834 47.9571C35.0834 48.4559 35.4396 49.0496 36.3896 48.8596C40.1614 47.5863 43.4391 45.1622 45.7611 41.9284C48.083 38.6948 49.3324 34.8143 49.3334 30.8334C49.3334 20.3359 40.8309 11.8334 30.3334 11.8334Z" fill="#5E3BEE"/>
</g>
</svg>
