<svg width="61" height="61" viewBox="0 0 61 61" fill="none" xmlns="http://www.w3.org/2000/svg">
<rect x="1.33337" y="1.83334" width="58" height="58" rx="29" stroke="#5E3BEE" stroke-width="2"/>
<path fill-rule="evenodd" clip-rule="evenodd" d="M35.9444 15.6277H23.0556C18.6066 15.6277 15 19.2343 15 23.6832V36.5721C15 41.0211 18.6066 44.6277 23.0556 44.6277H35.9444C40.3934 44.6277 44 41.0211 44 36.5721V23.6832C44 19.2343 40.3934 15.6277 35.9444 15.6277ZM41.1806 36.5721C41.1717 39.4602 38.8325 41.7994 35.9444 41.8082H23.0556C20.1674 41.7994 17.8283 39.4602 17.8194 36.5721V23.6832C17.8283 20.7951 20.1674 18.456 23.0556 18.4471H35.9444C38.8325 18.456 41.1717 20.7951 41.1806 23.6832V36.5721ZM37.1528 24.086C38.0426 24.086 38.7639 23.3647 38.7639 22.4749C38.7639 21.5851 38.0426 20.8638 37.1528 20.8638C36.263 20.8638 35.5417 21.5851 35.5417 22.4749C35.5417 23.3647 36.263 24.086 37.1528 24.086ZM29.5 22.8777C25.4959 22.8777 22.25 26.1236 22.25 30.1277C22.25 34.1318 25.4959 37.3777 29.5 37.3777C33.5041 37.3777 36.75 34.1318 36.75 30.1277C36.7544 28.2035 35.9918 26.357 34.6312 24.9964C33.2706 23.6359 31.4242 22.8734 29.5 22.8777ZM25.0694 30.1277C25.0694 32.5746 27.053 34.5582 29.5 34.5582C31.947 34.5582 33.9306 32.5746 33.9306 30.1277C33.9306 27.6807 31.947 25.6971 29.5 25.6971C27.053 25.6971 25.0694 27.6807 25.0694 30.1277Z" fill="#5E3BEE"/>
</svg>
