<svg width="112" height="150" viewBox="0 0 112 150" fill="none" xmlns="http://www.w3.org/2000/svg">
<g filter="url(#filter0_d_303_2353)">
<path d="M37.4984 109.712C37.4984 109.712 32.1105 112.849 41.3352 113.907C52.5106 115.188 58.2217 115.006 70.5312 112.667C70.5312 112.667 73.7745 114.7 78.2929 116.463C50.6833 128.29 15.8174 115.769 37.4984 109.712ZM34.1199 94.2764C34.1199 94.2764 28.0798 98.7478 37.3045 99.7055C49.2438 100.933 58.6683 101.039 74.9849 97.8958C74.9849 97.8958 77.2411 100.181 80.7841 101.433C47.4165 111.192 10.2355 102.197 34.1199 94.2764ZM62.5579 68.0829C69.3619 75.9151 60.7718 82.9658 60.7718 82.9658C60.7718 82.9658 78.0402 74.0466 70.1081 62.883C62.699 52.4714 57.0172 47.3008 87.7761 29.4624C87.7761 29.4566 39.502 41.5133 62.5579 68.0829ZM99.0691 121.134C99.0691 121.134 103.059 124.418 94.68 126.957C78.7453 131.786 28.356 133.238 14.3661 127.15C9.33658 124.959 18.7728 121.921 21.7341 121.287C24.8306 120.617 26.5991 120.74 26.5991 120.74C20.9997 116.798 -9.57117 128.478 11.0699 131.827C67.3583 140.952 113.67 127.715 99.0691 121.134ZM40.0896 78.2771C40.0896 78.2771 14.4601 84.3642 31.0176 86.5735C38.0037 87.5077 51.9407 87.2962 64.9199 86.2092C75.5313 85.3161 86.1779 83.4065 86.1779 83.4065C86.1779 83.4065 82.4352 85.0047 79.7265 86.8555C53.7034 93.7006 3.4257 90.516 17.9032 83.5182C30.1363 77.6073 40.0896 78.2771 40.0896 78.2771ZM86.0604 103.977C112.518 90.2281 100.285 77.0138 91.748 78.8C89.6622 79.2348 88.7221 79.6109 88.7221 79.6109C88.7221 79.6109 89.4977 78.3946 90.9842 77.8658C107.877 71.9256 120.868 95.381 85.5316 104.67C85.5316 104.665 85.9429 104.306 86.0604 103.977ZM70.1081 0.660156C70.1081 0.660156 84.7619 15.314 56.2123 37.8528C33.3209 55.9321 50.9947 66.2438 56.2064 78.0186C42.8452 65.9559 33.0388 55.3504 39.6137 45.4735C49.2732 30.9666 76.0249 23.9394 70.1081 0.660156ZM42.6866 141.228C68.081 142.856 107.078 140.33 108 128.314C108 128.314 106.226 132.867 87.0123 136.487C65.343 140.565 38.603 140.089 22.7506 137.474C22.7506 137.468 25.9998 140.159 42.6866 141.228Z" fill="#5E3BEE"/>
</g>
<defs>
<filter id="filter0_d_303_2353" x="0" y="0.660156" width="112" height="149.013" filterUnits="userSpaceOnUse" color-interpolation-filters="sRGB">
<feFlood flood-opacity="0" result="BackgroundImageFix"/>
<feColorMatrix in="SourceAlpha" type="matrix" values="0 0 0 0 0 0 0 0 0 0 0 0 0 0 0 0 0 0 127 0" result="hardAlpha"/>
<feOffset dy="4"/>
<feGaussianBlur stdDeviation="2"/>
<feComposite in2="hardAlpha" operator="out"/>
<feColorMatrix type="matrix" values="0 0 0 0 0 0 0 0 0 0 0 0 0 0 0 0 0 0 0.25 0"/>
<feBlend mode="normal" in2="BackgroundImageFix" result="effect1_dropShadow_303_2353"/>
<feBlend mode="normal" in="SourceGraphic" in2="effect1_dropShadow_303_2353" result="shape"/>
</filter>
</defs>
</svg>
