<svg width="144" height="143" viewBox="0 0 144 143" fill="none" xmlns="http://www.w3.org/2000/svg">
<path d="M0.876221 0.376465H143.124V142.624H0.876221V0.376465ZM131.471 108.698C130.434 102.208 126.208 96.755 113.672 91.6696C109.31 89.6248 104.462 88.2023 103.022 84.9129C102.482 82.957 102.399 81.8901 102.749 80.7344C103.638 76.9055 108.172 75.7557 111.728 76.8226C114.04 77.5338 116.174 79.3119 117.513 82.1568C123.642 78.1502 123.642 78.1502 127.915 75.489C126.315 72.9997 125.52 71.9269 124.442 70.866C120.708 66.6874 115.735 64.5537 107.645 64.7375L103.466 65.265C99.4596 66.2429 95.6426 68.3766 93.3311 71.2216C86.5743 78.8733 88.5243 92.209 96.7035 97.7211C104.794 103.767 116.624 105.094 118.135 110.79C119.558 117.725 112.979 119.947 106.483 119.147C101.676 118.08 99.015 115.674 96.0812 111.229L85.2348 117.458C86.4795 120.303 87.902 121.542 90.0357 124.031C100.349 134.439 126.131 133.905 130.76 118.08C130.932 117.547 132.182 113.902 131.199 108.301L131.471 108.698ZM78.2291 65.7569H64.9053C64.9053 77.2434 64.852 88.6587 64.852 100.163C64.852 107.465 65.2254 114.168 64.034 116.231C62.0781 120.315 57.0402 119.793 54.7524 119.076C52.4053 117.914 51.214 116.314 49.833 114.008C49.4596 113.386 49.1811 112.847 49.0803 112.847L38.2636 119.515C40.0713 123.249 42.7088 126.461 46.1109 128.506C51.1784 131.529 57.9885 132.506 65.1187 130.906C69.7595 129.567 73.7602 126.811 75.8524 122.543C78.8752 117.031 78.2351 110.274 78.2054 102.712C78.2766 90.5376 78.2054 78.3576 78.2054 66.0888L78.2291 65.7569Z" fill="#5E3BEE"/>
</svg>
