<svg width="117" height="121" viewBox="0 0 117 121" fill="none" xmlns="http://www.w3.org/2000/svg">
<path d="M116.492 27.7929C116.537 27.9532 116.561 28.119 116.561 28.2857V53.9233C116.561 54.5953 116.198 55.2176 115.62 55.5462L94.0998 67.9418V92.5041C94.0992 92.8327 94.0124 93.1555 93.8482 93.4402C93.684 93.725 93.4481 93.9617 93.164 94.1269L48.2261 119.988C48.122 120.046 48.0117 120.091 47.8975 120.123C47.8577 120.133 47.8178 120.163 47.778 120.173C47.4657 120.262 47.1345 120.262 46.8222 120.173C46.7675 120.163 46.7227 120.133 46.6778 120.113C46.5733 120.073 46.4638 120.043 46.3642 119.988L1.44624 94.1269C1.1605 93.9631 0.923031 93.7268 0.757832 93.4419C0.592632 93.1569 0.505547 92.8334 0.505371 92.5041V15.5665C0.505371 15.4022 0.530262 15.238 0.575065 15.0787C0.59 15.0189 0.624847 14.9741 0.64476 14.9194C0.674706 14.82 0.713008 14.7235 0.759257 14.6306C0.77917 14.5659 0.83393 14.5211 0.873755 14.4663C0.933493 14.3867 0.978297 14.312 1.03803 14.2423C1.09777 14.1925 1.16249 14.1527 1.22223 14.1079C1.29192 14.0482 1.35664 13.9884 1.42633 13.9387H1.43131L23.8978 1.01036C24.1816 0.846512 24.5035 0.760254 24.8312 0.760254C25.1589 0.760254 25.4808 0.846512 25.7646 1.01036L48.2261 13.9387H48.236C48.3107 13.9884 48.3704 14.0432 48.4401 14.1029L48.6243 14.2373C48.689 14.307 48.7288 14.3817 48.7886 14.4614C48.8284 14.5161 48.8882 14.5659 48.913 14.6256C48.9678 14.7202 48.9977 14.8148 49.0325 14.9144C49.0475 14.9691 49.0873 15.0189 49.0972 15.0737C49.147 15.228 49.1669 15.3923 49.1669 15.5615V63.6108L67.8848 52.838V28.2758C67.8848 28.1115 67.9097 27.9472 67.9545 27.7879C67.9695 27.7331 67.9993 27.6834 68.0192 27.6286C68.0526 27.5282 68.0925 27.4301 68.1387 27.3349C68.1736 27.2752 68.2283 27.2304 68.2632 27.1706C68.3229 27.0959 68.3677 27.0213 68.4275 26.9566C68.4872 26.8968 68.5519 26.857 68.6116 26.8172C68.6813 26.7624 68.7411 26.7027 68.8158 26.6579L91.2872 13.7246C91.571 13.5607 91.8929 13.4745 92.2206 13.4745C92.5483 13.4745 92.8702 13.5607 93.154 13.7246L115.62 26.6579C115.7 26.7076 115.755 26.7624 115.83 26.8122C115.889 26.862 115.954 26.9018 116.009 26.9516C116.073 27.0213 116.118 27.0959 116.178 27.1706C116.218 27.2304 116.273 27.2752 116.297 27.3349C116.352 27.4345 116.387 27.529 116.417 27.6286C116.448 27.6804 116.473 27.7355 116.492 27.7929ZM112.808 52.843V31.5215L104.952 36.0417L94.0899 42.2943V63.6158L112.808 52.843ZM90.3513 91.4238V70.0824L79.6681 76.1806L49.1669 93.5943V115.13L90.3513 91.4238ZM4.23899 18.8023V91.4238L45.4233 115.13V93.5943L23.9077 81.4226L23.8978 81.4077H23.8878C23.8181 81.3579 23.7634 81.3032 23.6887 81.2534C23.6339 81.2036 23.5692 81.1638 23.5144 81.119L23.5095 81.109C23.4448 81.0493 23.4049 80.9846 23.3551 80.9149C23.3054 80.8551 23.2506 80.8004 23.2158 80.7307H23.2058C23.166 80.661 23.1411 80.5764 23.1062 80.4967C23.0764 80.4171 23.0365 80.3623 23.0166 80.2827C22.9978 80.1889 22.9845 80.0942 22.9768 79.9989C22.9669 79.9292 22.9469 79.8645 22.9469 79.7948V29.58L12.0945 23.3225L4.23899 18.8023ZM24.8287 4.79376L6.11078 15.5665L24.8287 26.3393L43.5366 15.5665L24.8287 4.79376ZM34.566 72.0239L45.4283 65.7713V18.8023L37.5628 23.3275L26.7005 29.58V76.549L34.566 72.0239ZM92.2231 17.508L73.5052 28.2807L92.2231 39.0485L110.936 28.2758L92.2231 17.508ZM90.3513 42.2943L79.4889 36.0417L71.6284 31.5215V52.843L82.4908 59.0956L90.3513 63.6158V42.2943ZM47.2902 90.3535L74.7398 74.6822L88.4596 66.8565L69.7566 56.0888L48.231 68.4794L28.6121 79.7799L47.2902 90.3535Z" fill="#5E3BEE"/>
</svg>
