<svg width="61" height="61" viewBox="0 0 61 61" fill="none" xmlns="http://www.w3.org/2000/svg">
<rect x="1.33337" y="1.83334" width="58" height="58" rx="29" stroke="#5E3BEE" stroke-width="2"/>
<path fill-rule="evenodd" clip-rule="evenodd" d="M18.2222 15.6277H40.7778C42.5574 15.6277 44 17.0703 44 18.8499V41.4055C44 43.1851 42.5574 44.6277 40.7778 44.6277H18.2222C16.4426 44.6277 15 43.1851 15 41.4055V18.8499C15 17.0703 16.4426 15.6277 18.2222 15.6277ZM23.0556 39.7944C23.5004 39.7944 23.8611 39.4336 23.8611 38.9888V27.711C23.8611 27.2662 23.5004 26.9055 23.0556 26.9055H20.6389C20.194 26.9055 19.8333 27.2662 19.8333 27.711V38.9888C19.8333 39.4336 20.194 39.7944 20.6389 39.7944H23.0556ZM21.8472 25.2944C20.5125 25.2944 19.4306 24.2124 19.4306 22.8777C19.4306 21.543 20.5125 20.461 21.8472 20.461C23.1819 20.461 24.2639 21.543 24.2639 22.8777C24.2639 24.2124 23.1819 25.2944 21.8472 25.2944ZM38.3611 39.7944C38.8059 39.7944 39.1667 39.4336 39.1667 38.9888V31.5777C39.219 29.0173 37.3261 26.8322 34.7844 26.5188C33.0074 26.3565 31.2856 27.1864 30.3056 28.6777V27.711C30.3056 27.2662 29.9448 26.9055 29.5 26.9055H27.0833C26.6385 26.9055 26.2778 27.2662 26.2778 27.711V38.9888C26.2778 39.4336 26.6385 39.7944 27.0833 39.7944H29.5C29.9448 39.7944 30.3056 39.4336 30.3056 38.9888V32.9471C30.3056 31.6125 31.3876 30.5305 32.7222 30.5305C34.0569 30.5305 35.1389 31.6125 35.1389 32.9471V38.9888C35.1389 39.4336 35.4996 39.7944 35.9444 39.7944H38.3611Z" fill="#5E3BEE"/>
</svg>
