<svg width="143" height="142" viewBox="0 0 143 142" fill="none" xmlns="http://www.w3.org/2000/svg">
<path d="M84.736 1.45852L90.0438 2.63802L94.3489 4.17136L97.8285 5.94061L100.482 7.8278L102.487 9.83295L103.962 11.8381L104.905 13.7843L105.495 15.5535L105.731 17.0869L105.849 18.2664L105.79 19.033V50.5256L105.495 54.241L104.729 57.4846L103.49 60.1975L101.957 62.4385L100.187 64.2667L98.2413 65.7411L96.1772 66.8616L94.113 67.6873L92.1669 68.277L90.3976 68.6898L88.8643 68.9258L87.6258 69.0437H52.4178L48.3485 69.3386L44.869 70.1642L41.9203 71.4617L39.5023 73.054L37.5561 74.9412L35.9638 77.0053L34.7843 79.1284L33.8997 81.3105L33.31 83.3746L32.8971 85.2618L32.6612 86.8541L32.5433 88.0926V106.139H19.3919L18.1534 105.962L16.5021 105.549L14.6149 104.841L12.5508 103.78L10.4277 102.247L8.30462 100.123L6.2405 97.4106L4.35331 93.9311L2.70201 89.6259L1.46354 84.4361L0.637892 78.2438L0.343018 70.9899L0.696867 63.7949L1.64046 57.6616L3.05586 52.5307L4.94306 48.3435L7.06615 44.982L9.42514 42.3871L11.9021 40.4409L14.379 39.0255L16.738 38.0819L18.8611 37.4922L20.7483 37.1973L22.1637 37.1383H23.1073L23.4612 37.1973H71.5846V32.3024H37.1433L37.0844 16.0843L36.9664 13.9022L37.2613 11.8971L37.91 10.0688L38.9126 8.41755L40.3869 6.88421L42.2152 5.52778L44.4562 4.34829L47.0511 3.28674L50.0588 2.40212L53.4794 1.69442L57.2537 1.10467L61.441 0.750822L65.982 0.514922L70.9359 0.396973L78.4257 0.691847L84.736 1.45852ZM47.5819 13.1355L46.2255 15.0817L45.7537 17.4997L46.2255 19.9176L47.5819 21.9228L49.528 23.2202L51.946 23.751L54.364 23.2202L56.3102 21.9228L57.6666 19.9176L58.1384 17.4997L57.6666 15.0817L56.3102 13.1355L54.364 11.8381L51.946 11.3073L49.528 11.8381L47.5819 13.1355ZM124.78 36.4306L126.431 36.7845L128.318 37.4922L130.383 38.5537L132.506 40.146L134.629 42.2101L136.693 44.982L138.58 48.4615L140.231 52.7666L141.47 57.9564L142.295 64.0898L142.59 71.3437L142.237 78.5976L141.293 84.731L139.878 89.8028L137.99 93.9901L135.867 97.3516L133.508 100.005L131.031 101.952L128.554 103.367L126.195 104.311L124.072 104.841L122.185 105.136L120.77 105.254L119.826 105.195H71.3487V110.031H105.79L105.849 126.308L105.967 128.431L105.672 130.437L105.023 132.265L104.021 133.975L102.546 135.449L100.718 136.865L98.4772 138.044L95.8823 139.047L92.8746 139.931L89.454 140.698L85.6796 141.229L81.4924 141.642L76.9513 141.878L71.9975 141.937L64.5077 141.701L58.1973 140.875L52.8896 139.696L48.5844 138.221L45.1049 136.452L42.4511 134.506L40.4459 132.501L38.9715 130.495L38.0279 128.549L37.4382 126.78L37.2023 125.306L37.0844 124.126L37.1433 123.36V91.867L37.4382 88.0926L38.2049 84.9079L39.4433 82.1951L40.9767 79.954L42.7459 78.0669L44.6921 76.6515L46.7562 75.472L48.8203 74.6463L50.7665 74.0566L52.5358 73.7027L54.0691 73.4668L55.3076 73.3489L56.0743 73.2899H90.5156L94.5848 72.995L98.0643 72.1694L101.013 70.9309L103.431 69.2796L105.377 67.3924L106.97 65.3283L108.149 63.2052L109.034 61.0821L109.623 59.018L110.036 57.1308L110.272 55.4795L110.39 54.241V36.1947H122.716L123.541 36.2537L124.78 36.4306ZM86.6232 120.47L85.2668 122.416L84.795 124.834L85.2668 127.252L86.6232 129.198L88.5694 130.554L90.9874 131.026L93.4053 130.554L95.3515 129.198L96.7079 127.252L97.1797 124.834L96.7079 122.416L95.3515 120.47L93.4053 119.113L90.9874 118.642L88.5694 119.113L86.6232 120.47Z" fill="#5E3BEE"/>
</svg>
