<svg width="151" height="135" viewBox="0 0 151 135" fill="none" xmlns="http://www.w3.org/2000/svg">
<path d="M75.0667 54.1286C73.311 54.1286 71.5726 54.4744 69.9507 55.1462C68.3287 55.818 66.8549 56.8028 65.6135 58.0442C64.3721 59.2856 63.3874 60.7593 62.7155 62.3813C62.0437 64.0033 61.6979 65.7417 61.6979 67.4973C61.6979 69.2529 62.0437 70.9913 62.7155 72.6133C63.3874 74.2353 64.3721 75.7091 65.6135 76.9505C66.8549 78.1919 68.3287 79.1766 69.9507 79.8484C71.5726 80.5203 73.311 80.8661 75.0667 80.8661C76.8223 80.8661 78.5607 80.5203 80.1826 79.8484C81.8046 79.1766 83.2784 78.1919 84.5198 76.9505C85.7612 75.7091 86.7459 74.2353 87.4178 72.6133C88.0896 70.9913 88.4354 69.2529 88.4354 67.4973C88.4354 65.7417 88.0896 64.0033 87.4178 62.3813C86.7459 60.7593 85.7612 59.2856 84.5198 58.0442C83.2784 56.8028 81.8046 55.818 80.1826 55.1462C78.5607 54.4744 76.8223 54.1286 75.0667 54.1286ZM37.6166 94.0911L34.6666 93.3411C12.6791 87.7848 0.0666504 78.3536 0.0666504 67.4723C0.0666504 56.5911 12.6791 47.1598 34.6666 41.6036L37.6166 40.8598L38.4479 43.7848C40.6753 51.458 43.5243 58.9369 46.9667 66.1473L47.5979 67.4786L46.9667 68.8098C43.5186 76.0177 40.6694 83.4971 38.4479 91.1723L37.6166 94.0911ZM33.2979 48.4348C16.5854 53.1286 6.32915 60.3098 6.32915 67.4723C6.32915 74.6286 16.5854 81.8098 33.2979 86.5098C35.3418 80.0094 37.8096 73.6499 40.6854 67.4723C37.8063 61.2961 35.3384 54.9364 33.2979 48.4348ZM112.517 94.0911L111.685 91.1598C109.46 83.487 106.609 76.0098 103.16 68.8036L102.529 67.4723L103.16 66.1411C106.608 58.9321 109.459 51.4529 111.685 43.7786L112.517 40.8536L115.473 41.5973C137.454 47.1536 150.067 56.5848 150.067 67.4723C150.067 78.3598 137.454 87.7848 115.473 93.3411L112.517 94.0911ZM109.448 67.4723C112.448 73.9661 114.929 80.3473 116.835 86.5098C133.554 81.8098 143.804 74.6286 143.804 67.4723C143.804 60.3098 133.548 53.1348 116.835 48.4348C114.794 54.9362 112.326 61.2959 109.448 67.4723ZM33.2542 48.4036L32.4229 45.4848C26.2416 23.6973 28.1167 8.08479 37.5667 2.63479C46.8354 -2.71521 61.7167 3.60354 77.3104 19.6098L79.4354 21.791L77.3104 23.9723C71.7695 29.7323 66.7069 35.9341 62.1729 42.5161L61.3292 43.7223L59.8604 43.8473C51.8848 44.476 43.9734 45.7511 36.2042 47.6598L33.2542 48.4036ZM45.1041 6.96604C43.4291 6.96604 41.9479 7.32854 40.6979 8.04729C34.4854 11.6285 33.3854 24.0786 37.6666 40.8786C44.3269 39.3969 51.0766 38.3509 57.8729 37.7473C61.7943 32.1716 66.0786 26.8601 70.6979 21.8473C60.9479 12.3535 51.7166 6.96604 45.1041 6.96604ZM105.035 134.229C105.029 134.229 105.029 134.229 105.035 134.229C96.1292 134.229 84.6917 127.522 72.8229 115.335L70.6979 113.154L72.8229 110.972C78.3624 105.21 83.4229 99.0066 87.9542 92.4223L88.7979 91.2161L90.2604 91.0911C98.2401 90.4658 106.156 89.1929 113.929 87.2848L116.879 86.5411L117.717 89.4661C123.885 111.241 122.017 126.86 112.567 132.304C110.271 133.601 107.672 134.266 105.035 134.229ZM79.4354 113.097C89.1854 122.591 98.4167 127.979 105.029 127.979C106.698 127.979 108.192 127.616 109.435 126.897C115.648 123.316 116.754 110.86 112.467 94.0598C105.805 95.5436 99.0528 96.5895 92.2542 97.1911C88.3375 102.771 84.0552 108.084 79.4354 113.097ZM116.879 48.4036L113.929 47.6598C106.157 45.7456 98.2408 44.4705 90.2604 43.8473L88.7979 43.7223L87.9542 42.5161C83.4252 35.932 78.3645 29.73 72.8229 23.9723L70.6979 21.791L72.8229 19.6098C88.4104 3.60979 103.285 -2.70896 112.567 2.63479C122.017 8.08479 123.892 23.6973 117.717 45.4786L116.879 48.4036ZM92.2542 37.7473C99.3916 38.3973 106.173 39.4536 112.467 40.8786C116.754 24.0786 115.648 11.6285 109.435 8.04729C103.26 4.47854 91.6542 9.9473 79.4354 21.8473C84.0526 26.8603 88.3347 32.1718 92.2542 37.7473ZM45.1041 134.229C42.4654 134.267 39.8639 133.603 37.5667 132.304C28.1167 126.86 26.2416 111.247 32.4229 89.4661L33.2479 86.5411L36.1979 87.2848C43.4167 89.1036 51.3792 90.3848 59.8541 91.0911L61.3229 91.2161L62.1604 92.4223C66.6951 99.0057 71.7576 105.209 77.2979 110.972L79.4229 113.154L77.2979 115.335C65.4354 127.522 53.9979 134.229 45.1041 134.229ZM37.6666 94.0598C33.3792 110.86 34.4854 123.316 40.6979 126.897C46.8666 130.416 58.4666 124.991 70.6979 113.097C66.0804 108.081 61.7962 102.767 57.8729 97.1911C51.0763 96.5901 44.3264 95.5441 37.6666 94.0598ZM75.0667 97.9848C69.9229 97.9848 64.6354 97.7598 59.3417 97.3223L57.8729 97.1973L57.0292 95.9911C54.0348 91.6886 51.2199 87.264 48.5917 82.7286C45.9712 78.1896 43.5399 73.5439 41.3041 68.8036L40.6854 67.4723L41.3041 66.1411C43.5396 61.4006 45.9708 56.7549 48.5917 52.2161C51.1791 47.7411 54.0229 43.2786 57.0292 38.9536L57.8729 37.7473L59.3417 37.6223C69.8083 36.7348 80.3313 36.7348 90.7979 37.6223L92.2604 37.7473L93.0979 38.9536C99.0927 47.5602 104.355 56.6546 108.829 66.1411L109.46 67.4723L108.829 68.8036C104.366 78.2956 99.1029 87.3909 93.0979 95.9911L92.2604 97.1973L90.7979 97.3223C85.5042 97.7598 80.2104 97.9848 75.0667 97.9848ZM61.3354 91.2098C70.5854 91.9036 79.5479 91.9036 88.8042 91.2098C93.9718 83.6552 98.5599 75.72 102.529 67.4723C98.567 59.2197 93.9764 51.2838 88.7979 43.7348C79.6569 43.041 70.4764 43.041 61.3354 43.7348C56.1547 51.2824 51.5639 59.2185 47.6041 67.4723C51.5776 75.7189 56.1678 83.654 61.3354 91.2098Z" fill="#5E3BEE"/>
</svg>
