<svg width="61" height="61" viewBox="0 0 61 61" fill="none" xmlns="http://www.w3.org/2000/svg">
<rect x="1.33337" y="1.83334" width="58" height="58" rx="29" stroke="#5E3BEE" stroke-width="2"/>
<path d="M45.9576 19.8306C45.2094 21.0049 44.3049 22.0292 43.2791 22.864C43.2791 23.1707 43.2791 23.4775 43.2791 23.8013C43.2873 29.3716 41.396 34.7129 38.0293 38.6278C34.6624 42.5426 30.1017 44.7034 25.3696 44.6257C22.6338 44.6365 19.9331 43.9016 17.4789 42.4785C17.3466 42.4105 17.2613 42.2566 17.2618 42.0865V41.8991C17.2618 41.6544 17.4303 41.4561 17.6382 41.4561C20.3274 41.3517 22.9206 40.2548 25.051 38.3205C22.617 38.2627 20.4269 36.5663 19.419 33.9578C19.3681 33.8155 19.384 33.6519 19.4609 33.5266C19.5377 33.4013 19.6645 33.3323 19.7955 33.3444C20.5352 33.4318 21.2824 33.3509 21.9961 33.1058C19.3091 32.4496 17.2901 29.8252 17.0012 26.613C16.9909 26.4589 17.0496 26.3098 17.156 26.2192C17.2625 26.1287 17.4013 26.11 17.5224 26.1701C18.2435 26.5444 19.0219 26.7415 19.8099 26.7493C17.4555 24.9313 16.4385 21.4733 17.3342 18.331C17.4266 18.0257 17.6487 17.8001 17.9189 17.7372C18.1891 17.6743 18.4674 17.7833 18.6517 18.0243C21.8289 22.0025 26.1944 24.3731 30.8278 24.6363C30.7092 24.0791 30.6509 23.5065 30.6541 22.9321C30.6974 19.9203 32.2815 17.2373 34.6646 16.1392C37.0476 15.0411 39.7582 15.7453 41.5273 17.922C42.7331 17.6517 43.8989 17.1752 44.9875 16.5076C45.0673 16.449 45.1684 16.449 45.2482 16.5076C45.298 16.6014 45.298 16.7204 45.2482 16.8143C44.7209 18.2349 43.8301 19.4264 42.7001 20.2226C43.6896 20.0876 44.6618 19.8129 45.5957 19.4046C45.6743 19.3416 45.7776 19.3416 45.8562 19.4046C45.9221 19.44 45.9714 19.5078 45.9909 19.5899C46.0104 19.672 45.9982 19.7601 45.9576 19.8306Z" fill="#5E3BEE"/>
</svg>
